<svg xmlns="http://www.w3.org/2000/svg" xmlns:xlink="http://www.w3.org/1999/xlink" aria-hidden="true" role="img" width="80" height="50" preserveAspectRatio="xMidYMid meet" viewBox="0 0 80 50"><g data-v-decfdd8a="" fill="#000000"><g data-gra="path-name" fill-rule="" class="tp-name"><g transform="scale(1)"><g><path d="M3.12 18.2Q1.3 18.2 0 17.13-1.3 16.05-1.3 13.97L-1.3 13.97Q-1.3 11.44 0.62 9.36 2.54 7.28 5.07 5.85 7.61 4.42 11.63 2.54L11.63 2.54Q12.74-0.26 14.76-7.61L14.76-7.61Q12.42-4.29 10.17-2.41 7.93-0.52 5.4-0.52L5.4-0.52Q3.25-0.52 1.56-1.82-0.13-3.12-0.13-5.92L-0.13-5.92Q-0.13-8.13 0.91-11.54 1.95-14.95 3.38-17.52 4.81-20.09 5.85-20.09L5.85-20.09Q6.5-20.09 7.8-19.4 9.1-18.72 9.36-17.94L9.36-17.94Q8.13-16.25 6.66-12.29 5.2-8.32 5.2-6.04L5.2-6.04Q5.2-3.64 7.08-3.64L7.08-3.64Q9.04-3.64 11.31-5.92 13.59-8.19 15.67-11.51L15.67-11.51Q15.79-11.96 16.05-13.65 16.32-15.34 17.23-16.61 18.14-17.88 19.82-17.88L19.82-17.88Q20.09-17.88 21.91-17.62L21.91-17.62Q21.84-15.99 20.38-10.53 18.91-5.07 16.96 0.13L16.96 0.13Q20.15-1.17 22.98-3.83 25.8-6.5 27.43-10.86L27.43-10.86 28.54-9.95Q27.17-5.46 23.82-2.41 20.48 0.65 16.12 2.6L16.12 2.6Q13.07 9.81 9.91 14.01 6.76 18.2 3.12 18.2L3.12 18.2ZM2.47 15.79Q3.83 15.79 6.04 13.03 8.26 10.27 10.4 5.4L10.4 5.4Q6.63 7.28 3.93 9.55 1.24 11.83 1.24 13.97L1.24 13.97Q1.24 14.69 1.53 15.24 1.82 15.79 2.47 15.79L2.47 15.79ZM29.12 18.2Q27.3 18.2 26 17.13 24.7 16.05 24.7 13.97L24.7 13.97Q24.7 11.44 26.62 9.36 28.54 7.28 31.07 5.85 33.61 4.42 37.63 2.54L37.63 2.54Q38.74-0.26 40.76-7.61L40.76-7.61Q38.41-4.29 36.17-2.41 33.93-0.52 31.39-0.52L31.39-0.52Q29.25-0.52 27.56-1.82 25.87-3.12 25.87-5.92L25.87-5.92Q25.87-8.13 26.91-11.54 27.95-14.95 29.38-17.52 30.81-20.09 31.85-20.09L31.85-20.09Q32.5-20.09 33.8-19.4 35.1-18.72 35.36-17.94L35.36-17.94Q34.13-16.25 32.66-12.29 31.2-8.32 31.2-6.04L31.2-6.04Q31.2-3.64 33.09-3.64L33.09-3.64Q35.03-3.64 37.31-5.92 39.59-8.19 41.66-11.51L41.66-11.51Q41.8-11.96 42.05-13.65 42.31-15.34 43.23-16.61 44.14-17.88 45.83-17.88L45.83-17.88Q46.09-17.88 47.91-17.62L47.91-17.62Q47.84-15.99 46.38-10.53 44.91-5.07 42.97 0.13L42.97 0.13Q46.15-1.17 48.98-3.83 51.8-6.5 53.43-10.86L53.43-10.86 54.53-9.95Q53.17-5.46 49.82-2.41 46.48 0.65 42.12 2.6L42.12 2.6Q39.06 9.81 35.91 14.01 32.76 18.2 29.12 18.2L29.12 18.2ZM28.47 15.79Q29.84 15.79 32.05 13.03 34.26 10.27 36.4 5.4L36.4 5.4Q32.63 7.28 29.93 9.55 27.23 11.83 27.23 13.97L27.23 13.97Q27.23 14.69 27.53 15.24 27.82 15.79 28.47 15.79L28.47 15.79ZM59.61 3.31Q55.05 3.31 52.88 0.68 50.7-1.95 50.7-5.59L50.7-5.59Q50.7-8.13 51.61-9.13 52.52-10.14 53.66-10.66 54.8-11.18 54.99-11.38L54.99-11.38Q59.15-15.67 61.3-20.28L61.3-20.28 61.3-20.93Q61.3-23.34 62.11-24.51 62.92-25.68 64.22-25.68L64.22-25.68Q65.65-25.68 65.78-24.38L65.78-24.38Q65.78-24.05 65.62-23.4 65.45-22.75 65.45-22.04L65.45-22.04Q65.45-20.8 65.84-19.44 66.23-18.07 67.08-15.73L67.08-15.73Q68.12-12.87 68.67-10.79 69.22-8.71 69.22-6.57L69.22-6.57Q69.22-5.46 68.97-3.9L68.97-3.9Q73.39-5 76.64-11.25L76.64-11.25 77.41-10.66Q76.12-6.96 73.81-4.68 71.5-2.41 68.38-1.95L68.38-1.95Q67.34 0.65 65 1.98 62.66 3.31 59.61 3.31L59.61 3.31ZM63.83-4.03Q64.03-4.62 64.03-6.04L64.03-6.04Q63.96-8.13 63.57-10.14 63.18-12.16 62.4-15.34L62.4-15.34 61.81-17.68Q58.63-12.16 56.16-9.55L56.16-9.55Q57.27-7.67 59.28-6.14 61.3-4.62 63.83-4.03L63.83-4.03ZM59.15 0.46Q60.45 0.46 61.59-0.2 62.73-0.84 63.31-2.08L63.31-2.08Q60.77-2.6 58.63-4.06 56.48-5.53 55.19-7.21L55.19-7.21Q54.27-7.02 54.27-5.46L54.27-5.46Q54.27-3.12 55.58-1.33 56.88 0.46 59.15 0.46L59.15 0.46Z" transform="translate(1.2999999523162842, 25.68000030517578)"></path></g> <!----> <!----> <!----> <!----> <!----> <!----> <!----></g></g> <!----></g></svg>
